<svg width="25" height="25" viewBox="0 0 25 25" fill="none" xmlns="http://www.w3.org/2000/svg">
<path opacity="0.2" d="M9.30002 11.8958C10.078 13.4863 11.3672 14.7697 12.9613 15.5404C13.0779 15.5957 13.2069 15.6197 13.3356 15.6099C13.4643 15.6002 13.5882 15.5571 13.6952 15.4849L16.0423 13.9198C16.1461 13.8506 16.2655 13.8084 16.3898 13.797C16.514 13.7855 16.6392 13.8053 16.7538 13.8545L21.1448 15.7363C21.294 15.7997 21.4185 15.9098 21.4996 16.0501C21.5808 16.1904 21.6141 16.3532 21.5947 16.5141C21.4559 17.6001 20.926 18.5983 20.1042 19.3218C19.2825 20.0452 18.2252 20.4443 17.1304 20.4444C13.7489 20.4444 10.5058 19.1011 8.11476 16.71C5.72367 14.3189 4.38037 11.0759 4.38037 7.6944C4.38043 6.59956 4.77955 5.54228 5.50301 4.72053C6.22647 3.89878 7.22465 3.3689 8.31065 3.23012C8.47154 3.21065 8.6344 3.24399 8.77469 3.32512C8.91498 3.40626 9.0251 3.53079 9.08847 3.67995L10.972 8.07475C11.0207 8.18843 11.0405 8.31238 11.0297 8.43559C11.019 8.55879 10.9779 8.67742 10.9101 8.7809L9.35048 11.164C9.27949 11.2712 9.23753 11.395 9.22868 11.5233C9.21984 11.6515 9.24442 11.7799 9.30002 11.8958Z" fill="#514EFC"/>
<path d="M9.30002 11.8958C10.078 13.4863 11.3672 14.7697 12.9613 15.5404C13.0779 15.5957 13.2069 15.6197 13.3356 15.6099C13.4643 15.6002 13.5882 15.5571 13.6952 15.4849L16.0423 13.9198C16.1461 13.8506 16.2655 13.8084 16.3898 13.797C16.514 13.7855 16.6392 13.8053 16.7538 13.8545L21.1448 15.7363C21.294 15.7997 21.4185 15.9098 21.4996 16.0501C21.5808 16.1904 21.6141 16.3532 21.5947 16.5141C21.4559 17.6001 20.926 18.5983 20.1042 19.3218C19.2825 20.0452 18.2252 20.4443 17.1304 20.4444C13.7489 20.4444 10.5058 19.1011 8.11476 16.71C5.72367 14.3189 4.38037 11.0759 4.38037 7.6944C4.38043 6.59956 4.77955 5.54228 5.50301 4.72053C6.22647 3.89878 7.22465 3.3689 8.31065 3.23012C8.47154 3.21065 8.6344 3.24399 8.77469 3.32512C8.91498 3.40626 9.0251 3.53079 9.08847 3.67995L10.972 8.07475C11.0207 8.18843 11.0405 8.31238 11.0297 8.43559C11.019 8.55879 10.9779 8.67742 10.9101 8.7809L9.35048 11.164C9.27949 11.2712 9.23753 11.395 9.22868 11.5233C9.21984 11.6515 9.24442 11.7799 9.30002 11.8958V11.8958Z" stroke="#514EFC" stroke-width="2" stroke-linecap="round" stroke-linejoin="round"/>
<path d="M15.5758 3.9444C16.8472 4.28634 18.0065 4.95635 18.9375 5.88734C19.8685 6.81832 20.5385 7.97759 20.8804 9.24902" stroke="#514EFC" stroke-width="2" stroke-linecap="round" stroke-linejoin="round"/>
<path d="M14.7991 6.8429C15.562 7.04806 16.2576 7.45007 16.8161 8.00866C17.3747 8.56725 17.7767 9.26281 17.9819 10.0257" stroke="#514EFC" stroke-width="2" stroke-linecap="round" stroke-linejoin="round"/>
</svg>
