<svg width="25" height="25" viewBox="0 0 25 25" fill="none" xmlns="http://www.w3.org/2000/svg">
<path opacity="0.2" d="M4.88932 16.788C3.77113 14.903 3.37953 12.6746 3.78805 10.5213C4.19658 8.36802 5.37712 6.43792 7.10801 5.09345C8.8389 3.74898 11.0011 3.08262 13.1885 3.21951C15.3759 3.35639 17.4381 4.2871 18.9879 5.83686C20.5377 7.38663 21.4684 9.44884 21.6053 11.6363C21.7422 13.8237 21.0758 15.9859 19.7314 17.7168C18.3869 19.4476 16.4568 20.6282 14.3035 21.0367C12.1502 21.4453 9.92186 21.0537 8.03686 19.9355L8.03688 19.9354L4.92845 20.8235C4.79984 20.8603 4.66375 20.862 4.53428 20.8284C4.4048 20.7949 4.28665 20.7273 4.19207 20.6327C4.0975 20.5381 4.02993 20.42 3.99638 20.2905C3.96283 20.161 3.96452 20.0249 4.00126 19.8963L4.88939 16.7879L4.88932 16.788Z" fill="#514EFC"/>
<path d="M4.88932 16.788C3.77113 14.903 3.37953 12.6746 3.78805 10.5213C4.19658 8.36802 5.37712 6.43792 7.10801 5.09345C8.8389 3.74898 11.0011 3.08262 13.1885 3.21951C15.3759 3.35639 17.4381 4.2871 18.9879 5.83686C20.5377 7.38663 21.4684 9.44885 21.6053 11.6363C21.7422 13.8237 21.0758 15.9859 19.7314 17.7168C18.3869 19.4476 16.4568 20.6282 14.3035 21.0367C12.1502 21.4453 9.92186 21.0537 8.03686 19.9355L8.03688 19.9354L4.92845 20.8235C4.79984 20.8603 4.66375 20.862 4.53428 20.8284C4.4048 20.7949 4.28665 20.7273 4.19207 20.6327C4.0975 20.5381 4.02993 20.42 3.99638 20.2905C3.96283 20.161 3.96452 20.0249 4.00126 19.8963L4.88939 16.7879L4.88932 16.788Z" stroke="#514EFC" stroke-width="2" stroke-linecap="round" stroke-linejoin="round"/>
<path d="M9.63037 10.6944H15.6304" stroke="#514EFC" stroke-width="2" stroke-linecap="round" stroke-linejoin="round"/>
<path d="M9.63037 13.6944H15.6304" stroke="#514EFC" stroke-width="2" stroke-linecap="round" stroke-linejoin="round"/>
</svg>
