<svg width="17" height="17" viewBox="0 0 17 17" fill="none" xmlns="http://www.w3.org/2000/svg">
<path fill-rule="evenodd" clip-rule="evenodd" d="M11.6304 7.6538C11.6304 8.24474 11.514 8.82991 11.2878 9.37587C11.0617 9.92184 10.7302 10.4179 10.3124 10.8358C9.8945 11.2536 9.39844 11.5851 8.85247 11.8113C8.30651 12.0374 7.72134 12.1538 7.13039 12.1538C6.53944 12.1538 5.95429 12.0374 5.40832 11.8113C4.86236 11.5851 4.36628 11.2536 3.94842 10.8358C3.53054 10.4179 3.19908 9.92184 2.97293 9.37587C2.74678 8.82991 2.63039 8.24474 2.63039 7.6538C2.63039 6.46032 3.1045 5.31573 3.94842 4.47182C4.79233 3.6279 5.93691 3.1538 7.13039 3.1538C8.32386 3.1538 9.46845 3.6279 10.3124 4.47182C11.1563 5.31573 11.6304 6.46032 11.6304 7.6538ZM10.8104 12.3938C9.60477 13.3298 8.08776 13.7711 6.56819 13.6279C5.04862 13.4848 3.64074 12.7679 2.63115 11.6232C1.62154 10.4785 1.08614 8.99209 1.13392 7.46655C1.18171 5.941 1.8091 4.491 2.88835 3.41175C3.96761 2.3325 5.41759 1.70512 6.94314 1.65733C8.46869 1.60955 9.9551 2.14495 11.0998 3.15455C12.2445 4.16414 12.9614 5.57203 13.1045 7.0916C13.2477 8.61116 12.8064 10.1282 11.8704 11.3338L14.9104 14.3738C14.9841 14.4425 15.0432 14.5253 15.0842 14.6173C15.1252 14.7093 15.1472 14.8086 15.149 14.9093C15.1508 15.01 15.1322 15.11 15.0945 15.2034C15.0568 15.2968 15.0006 15.3816 14.9294 15.4528C14.8582 15.5241 14.7734 15.5802 14.68 15.6179C14.5866 15.6556 14.4866 15.6742 14.3859 15.6724C14.2852 15.6706 14.1858 15.6486 14.0939 15.6076C14.0019 15.5666 13.9191 15.5075 13.8504 15.4338L10.8104 12.3938Z" fill="#1F2A33"/>
</svg>
